<?xml version="1.0" encoding="UTF-8" standalone="no"?>
<!-- Created with Inkscape (http://www.inkscape.org/) -->

<svg
   width="72.770279mm"
   height="72.769104mm"
   viewBox="0 0 72.770279 72.769104"
   version="1.1"
   id="svg1"
   xml:space="preserve"
   xmlns:inkscape="http://www.inkscape.org/namespaces/inkscape"
   xmlns:sodipodi="http://sodipodi.sourceforge.net/DTD/sodipodi-0.dtd"
   xmlns="http://www.w3.org/2000/svg"
   xmlns:svg="http://www.w3.org/2000/svg"><sodipodi:namedview
     id="namedview1"
     pagecolor="#ffffff"
     bordercolor="#000000"
     borderopacity="0.25"
     inkscape:showpageshadow="2"
     inkscape:pageopacity="0.0"
     inkscape:pagecheckerboard="0"
     inkscape:deskcolor="#d1d1d1"
     inkscape:document-units="mm"
     inkscape:export-bgcolor="#ffffff00"><inkscape:page
       x="0"
       y="0"
       width="72.770279"
       height="72.769104"
       id="page2"
       margin="0"
       bleed="0" /></sodipodi:namedview><defs
     id="defs1" /><g
     inkscape:label="Layer 1"
     inkscape:groupmode="layer"
     id="layer1"
     transform="translate(-104.01767,-185.87616)"><path
       style="fill:#000000"
       d="m 114.28017,258.60431 -10.18646,0.0339 v -10.25422 -10.25422 l 10.18646,0.0339 10.18645,0.0339 v 10.18646 10.18646 z M 104.226,258.50428 h 0.0662 v -0.0661 -0.0661 h -0.0662 -0.0661 v 0.0661 0.0661 z m 20.10833,0 h 0.0662 v -0.0661 -0.0661 h -0.0662 -0.0661 v 0.0661 0.0661 z m -17.19791,-2.91042 h 0.0661 v -0.0661 -0.0661 h -0.0661 -0.0662 v 0.0661 0.0661 z m 14.2875,0 h 0.0662 v -0.0661 -0.0661 h -0.0662 -0.0661 v 0.0661 0.0661 z m -7.11438,-0.16419 6.98208,-0.0342 v -7.01146 -7.01146 h -7.01145 -7.01146 l -0.0344,6.87917 -0.0344,6.87916 0.0638,0.16654 0.0638,0.16653 z m 0.006,-2.51294 -4.27846,0.0348 -0.16052,-0.16052 -0.16052,-0.16052 v -4.24656 -4.24657 l 0.15875,-0.15875 0.15875,-0.15875 h 4.12991 4.12991 l 0.17618,0.0676 0.17619,0.0676 -0.0259,4.46339 -0.0259,4.46338 z m -0.0873,-0.10099 h 4.20347 l 0.0614,-0.0992 0.0614,-0.0992 -4.2438,0.0367 -4.2438,0.0367 -0.10726,-0.16902 -0.10725,-0.16901 -0.002,0.14331 -0.002,0.14332 0.0882,0.0882 0.0882,0.0882 z m -4.29168,-8.51077 0.0882,-0.0882 -0.0882,-0.0882 -0.0882,-0.0882 v 0.17639 0.17639 z m 8.61779,-0.11846 0.0409,0.0303 -0.0818,-0.13229 -0.0818,-0.13229 -4.19245,0.0303 -4.19245,0.0303 4.23333,0.0717 4.23334,0.0717 z m -11.41796,-2.88015 h 0.0662 v -0.0661 -0.0661 h -0.0662 -0.0661 v 0.0661 0.0661 z m 14.2875,0 h 0.0661 v -0.0661 -0.0661 h -0.0661 -0.0662 v 0.0661 0.0661 z m -17.19792,-2.91041 h 0.0662 v -0.0661 -0.0662 h -0.0662 -0.0661 v 0.0662 0.0661 z m 20.10834,0 h 0.0661 v -0.0661 -0.0662 h -0.0661 -0.0662 v 0.0662 0.0661 z m 4.46236,20.21191 -1.49076,0.0374 -0.0664,-0.17299 -0.0664,-0.17299 0.0358,-2.841 0.0358,-2.841 h 1.52135 1.52136 v 2.97656 2.97657 z m -1.41965,-0.10358 h 0.0661 v -0.0661 -0.0661 h -0.0661 -0.0662 v 0.0661 0.0661 z m 2.77812,0 h 0.0661 v -0.0661 -0.0661 h -0.0661 -0.0662 v 0.0661 0.0661 z m -2.77812,-5.68854 h 0.0661 v -0.0662 -0.0661 h -0.0661 -0.0662 v 0.0661 0.0662 z m 2.77812,0 h 0.0661 v -0.0662 -0.0661 h -0.0661 -0.0662 v 0.0661 0.0662 z m 13.06132,5.79212 -1.49076,0.0374 -0.0615,-0.16972 -0.0615,-0.16972 -0.0353,-1.25677 -0.0353,-1.25677 -2.77812,-0.0661 -2.77813,-0.0661 -0.0203,-1.43487 -0.0203,-1.43486 -1.43486,-0.0203 -1.43487,-0.0204 -0.0377,-1.27577 -0.0377,-1.27577 0.21992,-0.21992 0.21992,-0.21993 1.25049,0.0252 1.2505,0.0252 v -1.35917 -1.35916 l -1.22767,0.027 -1.22766,0.027 -0.10584,0.0654 -0.10583,0.0654 v 1.17337 1.17337 l -0.21049,0.21048 -0.21048,0.21049 -2.79915,-0.0357 -2.79915,-0.0357 v -1.52136 -1.52135 l 2.74871,-0.0358 2.74871,-0.0358 0.27094,0.145 0.27093,0.145 -0.14417,-0.26938 -0.14417,-0.26939 0.0349,-4.20547 0.0349,-4.20547 h 1.52136 1.52135 l 0.0203,1.43999 0.0203,1.43999 1.25268,-0.0253 1.25267,-0.0253 0.22001,0.22002 0.22002,0.22001 -0.0149,2.70884 -0.0149,2.70884 h 1.27969 1.27969 l 0.0204,-1.43316 0.0204,-1.43316 h 1.52136 1.52135 l 0.0204,1.43272 0.0204,1.43272 h 1.34834 1.34835 l 0.0204,-1.43272 0.0204,-1.43272 1.42777,-0.0204 1.42776,-0.0204 v -2.79644 -2.79643 h -2.79643 -2.79644 l -0.0204,1.42776 -0.0204,1.42777 -2.73295,0.0357 -2.73296,0.0357 -0.21501,-0.21501 -0.21501,-0.21501 0.0376,-1.34207 0.0376,-1.34206 1.37449,-0.0199 1.37449,-0.0199 -0.0265,-1.2369 -0.0265,-1.2369 -0.095,-0.0964 -0.095,-0.0964 -2.7082,-0.0359 -2.70819,-0.0359 -0.0384,-1.24963 -0.0384,-1.24963 0.15295,-0.36926 0.15295,-0.36926 0.0905,0.0559 0.0905,0.0559 1.22271,0.0269 1.22271,0.0269 v -2.80704 -2.80704 h -1.33874 -1.33875 l 0.0149,2.7084 0.0149,2.7084 -0.22002,0.22001 -0.22001,0.22002 -1.25267,-0.0253 -1.25268,-0.0253 -0.0203,1.43998 -0.0203,1.43999 -1.38906,0.0661 -1.38906,0.0662 -0.0661,2.84427 -0.0661,2.84427 h -1.52136 -1.52135 v -2.97657 -2.97656 l 1.28959,-0.0379 1.2896,-0.0379 0.27484,0.14709 0.27485,0.1471 -0.145,-0.27094 -0.145,-0.27093 0.0358,-2.74872 0.0358,-2.74871 1.43272,-0.0204 1.43272,-0.0204 v -1.34126 -1.34126 h -2.80139 -2.80139 l -0.0204,1.42777 -0.0204,1.42776 -2.88793,0.0257 -2.88792,0.0257 v 1.34305 1.34305 l 1.43272,0.0204 1.43271,0.0204 v 1.52135 1.52135 h -4.43177 -4.43177 l -0.0376,-1.34206 -0.0375,-1.34207 0.21978,-0.21977 0.21977,-0.21978 1.25049,0.0252 1.25049,0.0252 v -1.35131 -1.35131 h -1.35194 -1.35194 l 0.027,1.22766 0.027,1.22767 0.0534,0.0865 0.0534,0.0865 -0.3328,0.15164 -0.33281,0.15163 h -1.10887 -1.10881 l -0.2153,-0.2153 -0.2153,-0.2153 0.0254,-1.25786 0.0254,-1.25787 -1.25786,0.0254 -1.25787,0.0254 -0.21977,-0.21977 -0.21978,-0.21978 0.0375,-1.34206 0.0376,-1.34207 1.43487,-0.0203 1.43486,-0.0203 0.0203,-1.43486 0.0203,-1.43487 1.43272,-0.0204 1.43272,-0.0204 v -1.34835 -1.34834 l -1.43272,-0.0204 -1.43272,-0.0204 -0.0376,-1.34207 -0.0375,-1.34206 0.21496,-0.21496 0.21496,-0.21496 2.79915,0.0357 2.79915,0.0357 0.0256,2.89572 0.0256,2.89571 1.19213,-0.0262 1.19212,-0.0262 0.28054,0.15013 0.28053,0.15014 -0.14709,-0.27485 -0.1471,-0.27484 0.0379,-1.2896 0.0379,-1.28959 1.43272,-0.0204 1.43272,-0.0204 v -1.34834 -1.34835 l -1.43272,-0.0204 -1.43272,-0.0204 v -1.45521 -1.4552 l 1.43272,-0.0204 1.43272,-0.0204 v -1.34835 -1.34834 l -1.43272,-0.0204 -1.43272,-0.0204 v -1.52135 -1.52136 l 2.79916,-0.0357 2.79915,-0.0357 0.2152,0.2152 0.21519,0.2152 -0.0149,2.70344 -0.0149,2.70345 h 2.79848 2.79847 l -0.0149,-2.70345 -0.0149,-2.70344 0.21708,-0.21708 0.21707,-0.21707 1.34207,0.0375 1.34206,0.0375 0.0203,1.43487 0.0203,1.43486 1.43487,0.0203 1.43486,0.0203 v 1.52135 1.52136 l -1.43529,0.0203 -1.4353,0.0203 -0.0199,1.36872 -0.0199,1.36872 -2.88298,0.0257 -2.88297,0.0257 v 2.78937 2.78937 h 4.25163 4.25163 l 0.0204,-1.42597 0.0204,-1.42597 1.32292,-0.0661 1.32291,-0.0661 0.0661,-1.38907 0.0661,-1.38906 h 2.97657 2.97656 v 1.52136 1.52135 l -2.74872,0.0358 -2.74871,0.0358 -0.27093,-0.145 -0.27094,-0.14501 0.14718,0.27502 0.14718,0.27501 -0.0153,2.66385 -0.0153,2.66386 1.17847,-0.0259 1.17846,-0.0259 0.32027,0.14556 0.32026,0.14555 -0.0661,1.41634 -0.0661,1.41634 -1.43255,0.0204 -1.43255,0.0204 0.0153,2.65813 0.0153,2.65813 -0.14718,0.27501 -0.14718,0.27502 0.27242,-0.1458 0.27242,-0.14579 4.10884,0.0107 4.10885,0.0107 v -2.79804 -2.79805 l -1.42776,-0.0204 -1.42777,-0.0204 -0.0662,-1.42014 -0.0661,-1.42014 0.33192,-0.13713 0.33191,-0.13713 2.7108,0.0359 2.71079,0.0359 0.0257,2.88793 0.0256,2.88793 h 1.33268 1.33268 v -7.16492 -7.16492 h -1.33798 -1.33797 l -0.0204,1.43272 -0.0204,1.43272 h -1.52135 -1.52136 l -0.0255,-2.82389 -0.0255,-2.82389 -1.4297,-0.0204 -1.4297,-0.0204 -0.0661,-1.38906 -0.0662,-1.38907 h -1.25677 -1.25677 l -0.0662,1.38907 -0.0661,1.38906 h -1.52136 -1.52135 v -1.52136 -1.52135 l 1.38906,-0.0662 1.38907,-0.0661 0.0661,-1.29508 0.0661,-1.29507 0.19843,-0.12751 0.19844,-0.12751 1.32292,0.0335 1.32291,0.0335 0.0382,1.32148 0.0383,1.32147 0.0941,0.0927 0.0941,0.0927 1.23647,0.0265 1.23647,0.0265 0.0203,-1.44062 0.0203,-1.44063 h 1.52135 1.52136 l 0.0204,1.43272 0.0204,1.43272 h 1.34834 1.34835 l 0.0204,-1.43272 0.0204,-1.43272 h 4.43177 4.43177 v 1.52136 1.52135 l -1.43486,0.0203 -1.43487,0.0203 -0.0203,1.43486 -0.0203,1.43487 -1.42789,0.0204 -1.42788,0.0204 v 2.743 2.74299 l 1.22945,-0.0263 1.22945,-0.0263 0.0941,-0.0927 0.094,-0.0927 0.0383,-1.32147 0.0382,-1.32148 1.38906,-0.0661 1.38906,-0.0662 0.0661,-1.32292 0.0661,-1.32291 2.7108,-0.0359 2.71079,-0.0359 0.33191,0.13713 0.33192,0.13712 -0.0662,1.354 -0.0661,1.35399 -2.74871,0.0358 -2.74871,0.0358 -0.27094,-0.145 -0.27093,-0.145 0.14709,0.27484 0.14709,0.27485 -0.0379,1.28959 -0.0379,1.2896 -1.28959,0.0379 -1.2896,0.0379 -0.27484,-0.14709 -0.27485,-0.1471 0.15014,0.28054 0.15014,0.28053 -0.0263,1.19746 -0.0263,1.19746 1.44062,0.0203 1.44062,0.0203 0.0203,1.44063 0.0203,1.44062 1.18079,-0.0259 1.18078,-0.026 0.32027,0.14556 0.32026,0.14555 -0.0661,1.41634 -0.0661,1.41634 -2.74871,0.0358 -2.74871,0.0358 -0.27094,-0.145 -0.27093,-0.145 0.15013,0.28053 0.15014,0.28053 -0.0263,1.19746 -0.0263,1.19746 1.44062,0.0203 1.44063,0.0203 0.0257,2.89003 0.0256,2.89004 1.42956,0.0204 1.42956,0.0204 0.0204,1.43272 0.0204,1.43272 h 1.34834 1.34835 l 0.0203,-1.43272 0.0204,-1.43272 h 2.91042 2.91042 v 2.97656 2.97656 l -1.36873,0.0199 -1.36872,0.0199 -0.0203,1.43529 -0.0203,1.4353 -2.77428,0.0359 -2.77428,0.0358 -0.0951,0.0965 -0.0951,0.0964 -0.0265,1.23647 -0.0265,1.23647 1.44062,0.0203 1.44062,0.0203 0.0199,1.36657 0.0199,1.36657 h 1.34921 1.3492 l 0.0199,-1.36657 0.0199,-1.36657 h 1.45521 1.45521 v 4.36562 4.36563 h -2.91042 -2.91042 l -0.0204,-1.43255 -0.0204,-1.43255 -2.69006,0.0155 -2.69007,0.0155 -0.0956,0.0956 -0.0956,0.0956 -0.0382,1.32147 -0.0382,1.32148 h -1.52135 -1.52136 l -0.0662,-1.38907 -0.0661,-1.38906 -1.38906,-0.0661 -1.38906,-0.0661 -0.0376,-1.34207 -0.0375,-1.34206 0.21683,-0.21684 0.21684,-0.21683 1.34207,0.0375 1.34206,0.0376 0.0661,1.38906 0.0661,1.38907 1.17856,0.0385 1.17855,0.0385 0.10613,-0.10614 0.10613,-0.10613 0.0158,-2.62402 0.0158,-2.62402 -1.43276,-0.0204 -1.43276,-0.0204 -0.0204,-1.42777 -0.0204,-1.42776 h -2.80851 -2.80852 l 0.0251,1.24554 0.0251,1.24553 -0.22001,0.22002 -0.22002,0.22001 -2.71095,-0.0149 -2.71096,-0.0149 -0.0199,1.36621 -0.0199,1.3662 -1.34207,0.0376 -1.34206,0.0376 -0.21995,-0.21995 -0.21995,-0.21995 0.0259,-1.17922 0.0259,-1.17922 h -2.80704 -2.80704 l 0.0157,2.61694 0.0157,2.61693 0.10613,0.10613 0.10613,0.10614 1.17856,-0.0385 1.17855,-0.0385 0.0662,-1.38907 0.0661,-1.38906 1.34207,-0.0376 1.34206,-0.0375 0.21684,0.21683 0.21683,0.21684 -0.0375,1.34206 -0.0376,1.34207 -1.38906,0.0661 -1.38906,0.0661 -0.0661,1.38906 -0.0661,1.38907 z m -1.41965,-0.10358 h 0.0661 v -0.0661 -0.0661 h -0.0661 -0.0662 v 0.0661 0.0661 z m 2.77812,0 h 0.0661 v -0.0661 -0.0661 h -0.0661 -0.0662 v 0.0661 0.0661 z m 17.59479,0 h 0.0661 v -0.0661 -0.0661 h -0.0661 -0.0661 v 0.0661 0.0661 z m 2.77813,0 h 0.0661 v -0.0661 -0.0661 h -0.0661 -0.0661 v 0.0661 0.0661 z m 5.95312,0 h 0.0661 v -0.0661 -0.0661 h -0.0661 -0.0661 v 0.0661 0.0661 z m 5.55625,0 h 0.0662 v -0.0661 -0.0661 h -0.0662 -0.0661 v 0.0661 0.0661 z m -34.80832,-2.77812 h 0.0662 l 0.0818,-0.1323 0.0818,-0.13229 h -0.0661 -0.0661 l -0.0818,0.13229 -0.0818,0.1323 z m 3.06613,0 h 0.0583 v -0.0583 -0.0583 l -0.15273,-0.0944 -0.15273,-0.0944 0.0944,0.15273 0.0944,0.15274 z m 17.30679,0 h 0.0661 l 0.0818,-0.1323 0.0818,-0.13229 h -0.0662 -0.0661 l -0.0818,0.13229 -0.0818,0.1323 z m 3.06613,0 h 0.0583 v -0.0583 -0.0583 l -0.15273,-0.0944 -0.15273,-0.0944 0.0944,0.15273 0.0944,0.15274 z m -28.97968,-0.1323 h 0.0661 v -0.0661 -0.0661 h -0.0661 -0.0661 v 0.0661 0.0661 z m 11.37708,0 h 0.0661 v -0.0661 -0.0661 h -0.0661 -0.0661 v 0.0661 0.0661 z m 11.77396,0 h 0.0662 v -0.0661 -0.0661 h -0.0662 -0.0661 v 0.0661 0.0661 z m -14.55209,-2.77812 h 0.0661 v -0.0662 -0.0661 h -0.0661 -0.0661 v 0.0661 0.0662 z m 17.33021,0 h 0.0662 v -0.0662 -0.0661 h -0.0662 -0.0661 v 0.0661 0.0662 z m -28.83962,-0.13229 h 0.0661 v -0.0661 -0.0661 h -0.0661 -0.0661 v 0.0661 0.0661 z m 17.19792,0 h 0.0661 v -0.0661 -0.0661 h -0.0661 -0.0661 v 0.0661 0.0661 z m 20.37291,-2.64584 h 0.0661 v -0.0661 -0.0661 h -0.0661 -0.0661 v 0.0661 0.0661 z m 3.04271,0 h 0.0661 v -0.0661 -0.0661 h -0.0661 -0.0661 v 0.0661 0.0661 z m 2.64583,0 h 0.0662 v -0.0661 -0.0661 h -0.0662 -0.0661 v 0.0661 0.0661 z m -49.0802,-0.13229 h 0.0662 v -0.0661 -0.0661 h -0.0662 -0.0661 v 0.0661 0.0661 z m 34.79271,0 h 0.0661 v -0.0661 -0.0661 h -0.0661 -0.0661 v 0.0661 0.0661 z m -34.79271,-2.77812 h 0.0662 v -0.0661 -0.0661 h -0.0662 -0.0661 v 0.0661 0.0661 z m 40.65127,-0.002 0.0377,0.002 -0.14478,-0.27052 -0.14478,-0.27052 0.0263,-1.19528 0.0263,-1.19527 h -1.35194 -1.35194 v 1.35131 1.35131 l 1.23429,-0.0199 1.23428,-0.0199 0.19843,0.13235 0.19844,0.13235 z m -2.81585,-0.26259 h -0.0661 v -0.0661 -0.0661 h 0.0661 0.0661 v 0.0661 0.0661 z m 2.51354,0 h -0.0661 v -0.0661 -0.0661 h 0.0661 0.0661 v 0.0661 0.0661 z m -2.51354,-2.51354 h -0.0661 v -0.0661 -0.0661 h 0.0661 0.0661 v 0.0661 0.0661 z m 2.51354,0 h -0.0661 v -0.0661 -0.0661 h 0.0661 0.0661 v 0.0661 0.0661 z m 5.95312,2.64583 h 0.0662 v -0.0661 -0.0661 h -0.0662 -0.0661 v 0.0661 0.0661 z m -31.88229,-2.77812 h 0.0661 v -0.0661 -0.0661 h -0.0661 -0.0661 v 0.0661 0.0661 z m 2.77813,0 h 0.0661 v -0.0661 -0.0661 h -0.0661 -0.0661 v 0.0661 0.0661 z m 3.04271,0 h 0.0661 v -0.0661 -0.0661 h -0.0661 -0.0661 v 0.0661 0.0661 z m 10.12414,-0.22777 4.23717,-0.0293 v -4.2409 -4.24091 h -4.241 -4.241 l 0.002,4.23717 0.002,4.23717 0.002,0.0331 0.002,0.0331 z m -4.17102,-0.0368 h -0.0661 v -0.0662 -0.0661 h 0.0661 0.0661 v 0.0661 0.0662 z m 8.33438,0 h -0.0661 v -0.0662 -0.0661 h 0.0661 0.0661 v 0.0661 0.0662 z m -4.1366,-2.67455 -1.49076,0.0374 -0.0686,-0.17866 -0.0686,-0.17866 0.038,-1.38012 0.038,-1.38012 h 1.52135 1.52136 v 1.52135 1.52136 z m -1.41965,-0.10358 h 0.0661 v -0.0661 -0.0661 h -0.0661 -0.0661 v 0.0661 0.0661 z m 2.77812,0 h 0.0661 v -0.0661 -0.0661 h -0.0661 -0.0661 v 0.0661 0.0661 z m -2.77812,-2.77812 h 0.0661 v -0.0661 -0.0662 h -0.0661 -0.0661 v 0.0662 0.0661 z m 2.77812,0 h 0.0661 v -0.0661 -0.0662 h -0.0661 -0.0661 v 0.0662 0.0661 z m -5.55625,-2.77813 h -0.0661 v -0.0661 -0.0662 h 0.0661 0.0661 v 0.0662 0.0661 z m 8.33438,0 h -0.0661 v -0.0661 -0.0662 h 0.0661 0.0661 v 0.0662 0.0661 z m 14.55207,8.46667 h 0.0662 v -0.0661 -0.0661 h -0.0662 -0.0661 v 0.0661 0.0661 z m -49.0802,-2.91042 h 0.0662 v -0.0661 -0.0661 h -0.0662 -0.0661 v 0.0661 0.0661 z m 2.77813,0 h 0.0661 v -0.0661 -0.0661 h -0.0661 -0.0661 v 0.0661 0.0661 z m 14.41979,0 h 0.0661 v -0.0661 -0.0661 h -0.0661 -0.0661 v 0.0661 0.0661 z m -11.37709,-2.77813 h 0.0661 v -0.0661 -0.0662 h -0.0661 -0.0661 v 0.0662 0.0661 z m 2.77813,0 h 0.0661 v -0.0661 -0.0662 h -0.0661 -0.0661 v 0.0662 0.0661 z m 3.04271,0 h 0.0661 v -0.0661 -0.0662 h -0.0661 -0.0661 v 0.0662 0.0661 z m 28.83958,0 h 0.0661 v -0.0661 -0.0662 h -0.0661 -0.0662 v 0.0662 0.0661 z m 3.0427,0 h 0.0661 v -0.0661 -0.0662 h -0.0661 -0.0661 v 0.0662 0.0661 z m 5.55625,0 h 0.0662 v -0.0661 -0.0662 h -0.0662 -0.0661 v 0.0662 0.0661 z m -49.0802,-2.91042 h 0.0662 v -0.0661 -0.0661 h -0.0662 -0.0661 v 0.0661 0.0661 z m -11.64167,-0.13229 h 0.0661 v -0.0661 -0.0661 h -0.0661 -0.0662 v 0.0661 0.0661 z m 8.59896,0 h 0.0662 v -0.0661 -0.0661 h -0.0662 -0.0661 v 0.0661 0.0661 z m 8.73125,0 h 0.0661 v -0.0661 -0.0661 h -0.0661 -0.0662 v 0.0661 0.0661 z m 3.04271,0 h 0.0661 v -0.0661 -0.0661 h -0.0661 -0.0662 v 0.0661 0.0661 z m -11.77396,-2.77813 h 0.0662 v -0.0661 -0.0662 h -0.0662 -0.0661 v 0.0662 0.0661 z m 40.61354,0 h 0.0661 v -0.0661 -0.0662 h -0.0661 -0.0661 v 0.0662 0.0661 z M 130.2874,229.6647 h 0.0661 v -0.0661 -0.0661 h -0.0661 -0.0662 v 0.0661 0.0661 z m -3.04271,-0.1323 h 0.0662 v -0.0661 -0.0662 h -0.0662 -0.0661 v 0.0662 0.0661 z m 17.33021,0 h 0.0661 v -0.0661 -0.0662 h -0.0661 -0.0661 v 0.0662 0.0661 z m 3.04271,0 h 0.0661 v -0.0661 -0.0662 h -0.0661 -0.0661 v 0.0662 0.0661 z m 12.9312,-0.10825 1.224,-0.0421 0.0912,-0.0902 0.0912,-0.0902 0.0264,-1.23429 0.0264,-1.23428 h -1.35194 -1.35194 l 0.005,1.3335 0.005,1.3335 0.005,0.0331 0.005,0.0331 z m -1.15725,-0.024 h -0.0661 v -0.0661 -0.0661 h 0.0661 0.0662 v 0.0661 0.0661 z m 0,-2.51354 h -0.0661 v -0.0662 -0.0661 h 0.0661 0.0662 v 0.0661 0.0662 z m 2.51355,0 h -0.0661 v -0.0662 -0.0661 h 0.0661 0.0661 v 0.0661 0.0662 z m 5.95312,2.64583 h 0.0661 v -0.0661 -0.0662 h -0.0661 -0.0662 v 0.0662 0.0661 z m -57.94375,-2.77812 h 0.0661 v -0.0661 -0.0661 h -0.0661 -0.0662 v 0.0661 0.0661 z m 43.39167,0 h 0.0661 v -0.0661 -0.0661 h -0.0661 -0.0661 v 0.0661 0.0661 z m -30.35039,-0.22154 1.33353,-0.0231 v -1.35134 -1.35133 l -1.23428,0.0264 -1.23428,0.0264 -0.0912,0.0912 -0.0912,0.0912 -0.0167,1.19062 -0.0167,1.19063 0.009,0.0661 0.009,0.0661 z m -1.26732,-0.043 h -0.0662 v -0.0661 -0.0662 h 0.0662 0.0661 v 0.0662 0.0661 z m 2.51354,0 h -0.0661 v -0.0661 -0.0662 h 0.0661 0.0662 v 0.0662 0.0661 z m 0,-2.51355 h -0.0661 v -0.0661 -0.0662 h 0.0661 0.0662 v 0.0662 0.0661 z m -11.37708,-0.13229 h 0.0661 v -0.0661 -0.0662 h -0.0661 -0.0661 v 0.0662 0.0661 z m 52.12291,0 h 0.0661 v -0.0661 -0.0662 h -0.0661 -0.0661 v 0.0662 0.0661 z m -43.39166,-2.91041 h 0.0662 v -0.0661 -0.0662 h -0.0662 -0.0661 v 0.0662 0.0661 z m 17.4625,0 h 0.0661 v -0.0661 -0.0662 h -0.0661 -0.0661 v 0.0662 0.0661 z m -26.19375,-0.1323 h 0.0661 v -0.0661 -0.0661 h -0.0661 -0.0661 v 0.0661 0.0661 z m 34.66041,0 h 0.0662 v -0.0661 -0.0661 h -0.0662 -0.0661 v 0.0661 0.0661 z m 3.04271,0 h 0.0662 v -0.0661 -0.0661 h -0.0662 -0.0661 v 0.0661 0.0661 z m 2.77813,0 h 0.0661 v -0.0661 -0.0661 h -0.0661 -0.0661 v 0.0661 0.0661 z m 11.64166,0 h 0.0661 v -0.0661 -0.0661 h -0.0661 -0.0661 v 0.0661 0.0661 z m -46.43437,-2.77812 h 0.0662 v -0.0661 -0.0661 h -0.0662 -0.0661 v 0.0661 0.0661 z m 23.28333,0 h 0.0661 v -0.0661 -0.0661 h -0.0661 -0.0661 v 0.0661 0.0661 z m 5.68854,0 h 0.0662 v -0.0661 -0.0661 h -0.0662 -0.0661 v 0.0661 0.0661 z m 14.68438,0 h 0.0661 v -0.0661 -0.0661 h -0.0661 -0.0661 v 0.0661 0.0661 z m -40.61354,-0.13229 h 0.0662 v -0.0661 -0.0661 h -0.0662 -0.0661 v 0.0661 0.0661 z m 14.41979,0 h 0.0661 v -0.0661 -0.0661 h -0.0661 -0.0661 v 0.0661 0.0661 z m 34.7927,0 h 0.0661 v -0.0661 -0.0661 h -0.0661 -0.0661 v 0.0661 0.0661 z m -49.21249,-2.64584 h 0.0662 v -0.0661 -0.0662 h -0.0662 -0.0661 v 0.0662 0.0661 z m 43.52396,0 h 0.0661 v -0.0661 -0.0662 h -0.0661 -0.0662 v 0.0662 0.0661 z m -26.19375,-0.13237 h 0.0661 v -0.0661 -0.0662 h -0.0661 -0.0661 v 0.0662 0.0661 z m 2.91041,0 h 0.0661 v -0.0661 -0.0662 h -0.0661 -0.0661 v 0.0662 0.0661 z m 2.77813,0 h 0.0661 v -0.0661 -0.0662 h -0.0661 -0.0661 v 0.0662 0.0661 z m 3.04271,0 h 0.0661 v -0.0661 -0.0662 h -0.0661 -0.0661 v 0.0662 0.0661 z m 14.41979,0 h 0.0661 v -0.0661 -0.0662 h -0.0661 -0.0662 v 0.0662 0.0661 z m -23.15104,-2.77812 h 0.0661 v -0.0661 -0.0661 h -0.0661 -0.0661 v 0.0661 0.0661 z m 2.91041,0 h 0.0661 v -0.0661 -0.0661 h -0.0661 -0.0661 v 0.0661 0.0661 z m 2.91823,0 h 0.0583 v -0.0583 -0.0583 l -0.15274,-0.0944 -0.15273,-0.0944 0.0944,0.15273 0.0944,0.15274 z m 2.7547,0 h 0.0661 l 0.0818,-0.13229 0.0818,-0.1323 h -0.0661 -0.0662 l -0.0818,0.1323 -0.0818,0.13229 z m -25.91355,-0.13229 h 0.0662 v -0.0661 -0.0662 h -0.0662 -0.0661 v 0.0662 0.0661 z m 43.39166,0 h 0.0661 v -0.0661 -0.0662 h -0.0661 -0.0661 v 0.0662 0.0661 z m -43.39166,-2.77813 h 0.0662 v -0.0662 -0.0661 h -0.0662 -0.0661 v 0.0661 0.0662 z m 14.41979,0 h 0.0661 v -0.0662 -0.0661 h -0.0661 -0.0661 v 0.0661 0.0662 z m 11.50937,0 h 0.0662 v -0.0662 -0.0661 h -0.0662 -0.0661 v 0.0661 0.0662 z m 3.04271,0 h 0.0662 v -0.0662 -0.0661 h -0.0662 -0.0661 v 0.0661 0.0662 z m 2.77813,0 h 0.0661 v -0.0662 -0.0661 h -0.0661 -0.0661 v 0.0661 0.0662 z m 3.04271,0 h 0.0661 v -0.0662 -0.0661 h -0.0661 -0.0661 v 0.0661 0.0662 z m 8.59895,0 h 0.0661 v -0.0662 -0.0661 h -0.0661 -0.0661 v 0.0661 0.0662 z m 5.68854,46.43438 h -0.0661 v -0.0662 -0.0661 h 0.0661 0.0662 v 0.0661 0.0662 z m -15.77826,-0.16101 -1.49076,0.0374 -0.0686,-0.17867 -0.0686,-0.17866 0.038,-1.38012 0.038,-1.38012 1.34207,-0.0376 1.34206,-0.0375 0.21684,0.21683 0.21684,0.21684 -0.0376,1.34206 -0.0376,1.34207 z m -1.41965,-0.10358 h 0.0661 v -0.0661 -0.0661 h -0.0661 -0.0661 v 0.0661 0.0661 z m 2.77812,0 h 0.0661 v -0.0661 -0.0661 h -0.0661 -0.0661 v 0.0661 0.0661 z m -2.77812,-2.77812 h 0.0661 v -0.0662 -0.0661 h -0.0661 -0.0661 v 0.0661 0.0662 z m -17.59479,0.13229 h -0.0661 v -0.0661 -0.0661 h 0.0661 0.0662 v 0.0661 0.0661 z m 11.90625,0 h -0.0661 v -0.0661 -0.0661 h 0.0661 0.0662 v 0.0661 0.0661 z m 9.98963,-0.0661 h -1.29926 l 0.0396,-0.0661 0.0396,-0.0662 -0.17046,-0.15741 -0.17045,-0.15741 -0.0472,0.0472 -0.0472,0.0472 v -1.23473 -1.23472 l 0.0472,0.0472 0.0472,0.0472 0.17045,-0.15741 0.17046,-0.15741 -0.0401,-0.0661 -0.0401,-0.0662 1.40993,0.0662 1.40993,0.0661 0.0661,1.34379 0.0661,1.34378 -0.0661,-0.0401 -0.0661,-0.0401 -0.15741,0.17046 -0.15742,0.17046 0.0472,0.0472 0.0472,0.0472 z m 1.38745,-2.84432 h 0.0661 v -0.0661 -0.0661 h -0.0661 -0.0661 v 0.0661 0.0661 z m -11.77396,2.51355 h -0.0661 v -0.0661 -0.0661 h 0.0661 0.0661 v 0.0661 0.0661 z m 23.68021,0 h -0.0662 v -0.0661 -0.0661 h 0.0662 0.0661 v 0.0661 0.0661 z m 2.51354,0 h -0.0661 v -0.0661 -0.0661 h 0.0661 0.0661 v 0.0661 0.0661 z m -40.61354,-2.38125 h -0.0661 v -0.0661 -0.0661 h 0.0661 0.0661 v 0.0661 0.0661 z m 8.99583,0 h -0.0662 v -0.0661 -0.0661 h 0.0662 0.0661 v 0.0661 0.0661 z m 5.42396,0 h -0.0661 v -0.0661 -0.0661 h 0.0661 0.0661 v 0.0661 0.0661 z m 3.30729,0 h -0.0661 v -0.0661 -0.0661 h 0.0661 0.0661 v 0.0661 0.0661 z m 14.15521,0 h -0.0662 v -0.0661 -0.0661 h 0.0662 0.0661 v 0.0661 0.0661 z m -31.48541,-0.39688 h -0.0662 v -0.0662 -0.0661 h 0.0662 0.0661 v 0.0661 0.0662 z m 2.51354,0 h -0.0661 v -0.0662 -0.0661 h 0.0661 0.0662 v 0.0661 0.0662 z m 32.27916,0 h -0.0661 v -0.0662 -0.0661 h 0.0661 0.0661 v 0.0661 0.0662 z m -32.27916,-2.51354 h -0.0661 v -0.0661 -0.0661 h 0.0661 0.0662 v 0.0661 0.0661 z m 20.6375,0 h -0.0661 v -0.0661 -0.0661 h 0.0661 0.0661 v 0.0661 0.0661 z m 5.42396,0 h -0.0661 v -0.0661 -0.0661 h 0.0661 0.0661 v 0.0661 0.0661 z m -28.97188,-0.39688 h -0.0661 v -0.0661 -0.0661 h 0.0661 0.0661 v 0.0661 0.0661 z m 6.21771,0 h -0.0662 v -0.0661 -0.0661 h 0.0662 0.0661 v 0.0661 0.0661 z m 2.38125,0 h -0.0661 v -0.0661 -0.0661 h 0.0661 0.0661 v 0.0661 0.0661 z m 3.30729,0 h -0.0661 v -0.0661 -0.0661 h 0.0661 0.0661 v 0.0661 0.0661 z m 2.51354,0 h -0.0661 v -0.0661 -0.0661 h 0.0661 0.0661 v 0.0661 0.0661 z m 26.59062,-2.51354 h -0.0661 v -0.0661 -0.0661 h 0.0661 0.0661 v 0.0661 0.0661 z m -23.6802,-0.39687 h -0.0661 v -0.0662 -0.0661 h 0.0661 0.0661 v 0.0661 0.0662 z m -11.1125,-2.51355 h -0.0662 v -0.0661 -0.0662 h 0.0662 0.0661 v 0.0662 0.0661 z m -2.91042,-0.39687 h -0.0661 v -0.0661 -0.0661 h 0.0661 0.0661 v 0.0661 0.0661 z m 2.51354,0 h -0.0661 v -0.0661 -0.0661 h 0.0661 0.0661 v 0.0661 0.0661 z m 29.36875,0 h -0.0661 v -0.0661 -0.0661 h 0.0661 0.0661 v 0.0661 0.0661 z m 2.51354,0 h -0.0661 v -0.0661 -0.0661 h 0.0661 0.0662 v 0.0661 0.0661 z m -25.79687,-2.51354 h -0.0661 v -0.0661 -0.0661 h 0.0661 0.0661 v 0.0661 0.0661 z m 5.42396,0 h -0.0661 v -0.0661 -0.0661 h 0.0661 0.0661 v 0.0661 0.0661 z m -8.73125,-0.39688 h -0.0661 v -0.0661 -0.0661 h 0.0661 0.0661 v 0.0661 0.0661 z m 23.68021,0 h -0.0661 v -0.0661 -0.0661 h 0.0661 0.0661 v 0.0661 0.0661 z m -56.72351,-2.67709 -4.33601,0.0349 -0.0676,-0.17612 -0.0676,-0.17612 0.038,-1.38012 0.038,-1.38011 1.37449,-0.0199 1.37449,-0.0199 -0.0263,-1.19789 -0.0263,-1.1979 0.15013,-0.28053 0.15014,-0.28053 -0.27516,0.14726 -0.27516,0.14726 -1.22314,-0.038 -1.22313,-0.038 v -1.52135 -1.52136 h 1.45521 1.45521 l 0.0661,1.38906 0.0661,1.38907 h 1.27746 1.27747 l -0.0399,0.0661 -0.0399,0.0662 0.17045,0.15741 0.17046,0.15741 0.0472,-0.0477 0.0472,-0.0477 -0.0661,1.3239 -0.0662,1.3239 0.0216,0.0216 0.0216,0.0216 1.33624,-0.0661 1.33625,-0.0661 0.0738,0.23343 0.0738,0.23344 0.0897,-0.0559 0.0897,-0.0559 -0.0662,1.40993 -0.0661,1.40993 z m -4.26295,-0.10103 h 0.0662 v -0.0661 -0.0661 h -0.0662 -0.0661 v 0.0661 0.0661 z m 8.46667,0 h 0.0661 v -0.0661 -0.0661 h -0.0661 -0.0662 v 0.0661 0.0661 z m -8.46667,-2.77813 h 0.0662 v -0.0661 -0.0662 h -0.0662 -0.0661 v 0.0662 0.0661 z m 0,-3.04271 h 0.0662 v -0.0661 -0.0662 h -0.0662 -0.0661 v 0.0662 0.0661 z m 0,-2.77812 h 0.0662 v -0.0661 -0.0661 h -0.0662 -0.0661 v 0.0661 0.0661 z m 2.64583,0 h 0.0661 v -0.0661 -0.0661 h -0.0661 -0.0661 v 0.0661 0.0661 z m 68.29315,8.70268 -1.42456,0.0376 -0.0686,-0.17881 -0.0686,-0.17881 0.038,-1.38012 0.038,-1.38011 h 1.45521 1.45521 v 1.52135 1.52135 z m -1.35357,-0.10372 h 0.0661 v -0.0661 -0.0661 h -0.0661 -0.0661 v 0.0661 0.0661 z m 2.64583,0 h 0.0662 v -0.0661 -0.0661 h -0.0662 -0.0661 v 0.0661 0.0661 z m -2.64583,-2.77813 h 0.0661 v -0.0661 -0.0662 h -0.0661 -0.0661 v 0.0662 0.0661 z m 2.64583,0 h 0.0662 v -0.0661 -0.0662 h -0.0662 -0.0661 v 0.0662 0.0661 z m -46.43437,2.64584 h -0.0662 v -0.0661 -0.0661 h 0.0662 0.0661 v 0.0661 0.0661 z m 11.90625,0 h -0.0662 v -0.0661 -0.0661 h 0.0662 0.0661 v 0.0661 0.0661 z m 8.33438,0 h -0.0661 v -0.0661 -0.0661 h 0.0661 0.0661 v 0.0661 0.0661 z m -34.79271,-2.51355 h -0.0661 v -0.0661 -0.0661 h 0.0661 0.0662 v 0.0661 0.0661 z m 17.85938,0 h -0.0662 v -0.0661 -0.0661 h 0.0662 0.0661 v 0.0661 0.0661 z m 2.51354,0 h -0.0661 v -0.0661 -0.0661 h 0.0661 0.0662 v 0.0661 0.0661 z m -29.10417,-0.39687 h -0.0662 v -0.0661 -0.0661 h 0.0662 0.0661 v 0.0661 0.0661 z m 3.30729,0 h -0.0661 v -0.0661 -0.0661 h 0.0661 0.0661 v 0.0661 0.0661 z m 8.33438,0 h -0.0661 v -0.0661 -0.0661 h 0.0661 0.0662 v 0.0661 0.0661 z m 3.30729,0 h -0.0662 v -0.0661 -0.0661 h 0.0662 0.0661 v 0.0661 0.0661 z m 17.06562,0 h -0.0661 v -0.0661 -0.0661 h 0.0661 0.0661 v 0.0661 0.0661 z m 14.81667,0 h -0.0661 v -0.0661 -0.0661 h 0.0661 0.0661 v 0.0661 0.0661 z m 2.51354,0 h -0.0661 v -0.0661 -0.0661 h 0.0661 0.0661 v 0.0661 0.0661 z m 6.21771,0 h -0.0661 v -0.0661 -0.0661 h 0.0661 0.0661 v 0.0661 0.0661 z m -55.5625,-2.51354 h -0.0662 v -0.0661 -0.0661 h 0.0662 0.0661 v 0.0661 0.0661 z m 5.82083,0 h -0.0662 v -0.0661 -0.0661 h 0.0662 0.0661 v 0.0661 0.0661 z m 3.3073,0 h -0.0662 v -0.0661 -0.0661 h 0.0662 0.0661 v 0.0661 0.0661 z m 2.51354,0 h -0.0661 v -0.0661 -0.0661 h 0.0661 0.0662 v 0.0661 0.0661 z m 3.30729,0 h -0.0662 v -0.0661 -0.0661 h 0.0662 0.0661 v 0.0661 0.0661 z m 20.24062,0 h -0.0662 v -0.0661 -0.0661 h 0.0662 0.0661 v 0.0661 0.0661 z m 8.33438,0 h -0.0661 v -0.0661 -0.0661 h 0.0661 0.0661 v 0.0661 0.0661 z m 12.03854,0 h -0.0661 v -0.0661 -0.0661 h 0.0661 0.0661 v 0.0661 0.0661 z m 12.89162,-0.16116 -1.39588,0.0373 -0.0969,-0.0969 -0.0969,-0.0969 0.0143,-2.82831 0.0143,-2.82831 h -1.34546 -1.34545 l -0.0204,1.43271 -0.0204,1.43272 -1.34206,0.0375 -1.34206,0.0376 -0.19661,-0.19661 -0.19662,-0.19662 -0.0488,0.0491 -0.0488,0.0491 0.0662,-2.86665 0.0661,-2.86664 2.89004,-0.0256 2.89004,-0.0256 0.0204,-1.42956 0.0204,-1.42956 h 1.45521 1.45521 v 5.88698 5.88698 z m -1.38225,-0.10343 h 0.0661 v -0.0661 -0.0662 h -0.0661 -0.0661 v 0.0662 0.0661 z m 2.64583,0 h 0.0662 v -0.0661 -0.0662 h -0.0662 -0.0661 v 0.0662 0.0661 z m -5.68854,-2.91041 h 0.0661 v -0.0661 -0.0661 h -0.0661 -0.0661 v 0.0661 0.0661 z m -2.77812,-5.68854 h 0.0661 v -0.0661 -0.0662 h -0.0661 -0.0661 v 0.0662 0.0661 z m 5.82083,-2.91042 h 0.0661 v -0.0661 -0.0661 h -0.0661 -0.0661 v 0.0661 0.0661 z m 2.64583,0 h 0.0662 v -0.0661 -0.0661 h -0.0662 -0.0661 v 0.0661 0.0661 z m -43.52395,11.37708 h -0.0661 v -0.0661 -0.0661 h 0.0661 0.0661 v 0.0661 0.0661 z m -5.42396,-2.51354 h -0.0661 v -0.0662 -0.0661 h 0.0661 0.0661 v 0.0661 0.0662 z m 5.42396,0 h -0.0661 v -0.0662 -0.0661 h 0.0661 0.0661 v 0.0661 0.0662 z m 3.30729,0 h -0.0661 v -0.0662 -0.0661 h 0.0661 0.0661 v 0.0661 0.0662 z m 2.51354,0 h -0.0661 v -0.0662 -0.0661 h 0.0661 0.0661 v 0.0661 0.0662 z m 7.34219,-0.13229 h -1.17172 l -0.19214,-0.19214 -0.19214,-0.19214 -0.0488,0.0494 -0.0488,0.0494 0.0661,-1.41173 0.0662,-1.41173 h 1.52135 1.52136 l 0.0661,1.41173 0.0661,1.41173 -0.0488,-0.0494 -0.0488,-0.0494 -0.19214,0.19214 -0.19214,0.19214 z m -1.38906,-2.91042 h 0.0662 v -0.0661 -0.0662 h -0.0662 -0.0661 v 0.0662 0.0661 z m 2.77812,0 h 0.0662 v -0.0661 -0.0662 h -0.0662 -0.0661 v 0.0662 0.0661 z m -34.925,2.64584 h -0.0662 v -0.0661 -0.0662 h 0.0662 0.0661 v 0.0662 0.0661 z m 29.36875,0 h -0.0662 v -0.0661 -0.0662 h 0.0662 0.0661 v 0.0662 0.0661 z m 23.28334,0 h -0.0661 v -0.0661 -0.0662 h 0.0661 0.0661 v 0.0662 0.0661 z m 5.82083,-2.51355 h -0.0662 v -0.0661 -0.0662 h 0.0662 0.0661 v 0.0662 0.0661 z m 2.51354,0 h -0.0661 v -0.0661 -0.0662 h 0.0661 0.0661 v 0.0662 0.0661 z m -58.07604,-0.39687 h -0.0661 v -0.0662 -0.0661 h 0.0661 0.0662 v 0.0661 0.0662 z m 3.30729,0 h -0.0661 v -0.0662 -0.0661 h 0.0661 0.0661 v 0.0661 0.0662 z m 2.51354,0 h -0.0661 v -0.0662 -0.0661 h 0.0661 0.0662 v 0.0661 0.0662 z m 9.12813,0 h -0.0661 v -0.0662 -0.0661 h 0.0661 0.0661 v 0.0661 0.0662 z m 8.33437,0 h -0.0661 v -0.0662 -0.0661 h 0.0661 0.0661 v 0.0661 0.0662 z m 23.54792,0 h -0.0661 v -0.0662 -0.0661 h 0.0661 0.0661 v 0.0661 0.0662 z m -46.83125,-2.51354 h -0.0661 v -0.0661 -0.0661 h 0.0661 0.0662 v 0.0661 0.0661 z m 26.45833,0 h -0.0662 v -0.0661 -0.0661 h 0.0662 0.0661 v 0.0661 0.0661 z m 20.37292,0 h -0.0661 v -0.0661 -0.0661 h 0.0661 0.0661 v 0.0661 0.0661 z m -38.1,-0.39688 h -0.0661 v -0.0661 -0.0661 h 0.0661 0.0662 v 0.0661 0.0661 z m 35.18958,0 h -0.0661 v -0.0661 -0.0661 h 0.0661 0.0662 v 0.0661 0.0661 z m 14.15521,0 h -0.0661 v -0.0661 -0.0661 h 0.0661 0.0661 v 0.0661 0.0661 z m -60.93133,-2.53944 -0.0551,-0.0259 -1.38907,-0.0733 -1.38906,-0.0733 -0.0662,-2.77812 -0.0661,-2.77813 -2.77812,-0.0661 -2.77813,-0.0661 v -1.52135 -1.52136 h 2.91042 2.91042 l 0.0382,1.32148 0.0382,1.32147 0.0941,0.0927 0.094,0.0927 1.23646,0.0265 1.23647,0.0265 0.0203,-1.44062 0.0203,-1.44063 h 1.52136 1.52135 l 0.0203,1.43487 0.0203,1.43486 1.43486,0.0203 1.43487,0.0203 v 1.52135 1.52136 l -2.89639,0.0256 -2.89638,0.0256 0.0279,1.15883 0.0279,1.15883 0.0778,0.12582 0.0778,0.12582 -0.11966,-0.0727 -0.11966,-0.0727 -0.15741,0.17046 -0.15742,0.17046 0.0802,0.0802 0.0802,0.0802 z m -2.70096,-0.23868 h 0.0661 v -0.0661 -0.0661 h -0.0661 -0.0662 v 0.0661 0.0661 z m 8.59896,-2.77813 h 0.0662 v -0.0661 -0.0662 h -0.0662 -0.0661 v 0.0662 0.0661 z m -8.74687,-2.77812 h 0.0661 l 0.0818,-0.13229 0.0818,-0.1323 h -0.0662 -0.0661 l -0.0818,0.1323 -0.0818,0.13229 z m 8.74687,0 h 0.0662 v -0.0661 -0.0661 h -0.0662 -0.0661 v 0.0661 0.0661 z M 104.226,212.2022 h 0.0662 v -0.0661 -0.0662 h -0.0662 -0.0661 v 0.0662 0.0661 z m 0,-2.77813 h 0.0662 v -0.0662 -0.0661 h -0.0662 -0.0661 v 0.0661 0.0662 z m 5.55625,0 h 0.0661 v -0.0662 -0.0661 h -0.0661 -0.0662 v 0.0661 0.0662 z m 3.04271,0 h 0.0661 v -0.0662 -0.0661 h -0.0661 -0.0661 v 0.0661 0.0662 z m 2.77812,0 h 0.0661 v -0.0662 -0.0661 h -0.0661 -0.0661 v 0.0661 0.0662 z m 8.59896,8.73125 h -0.0661 v -0.0661 -0.0661 h 0.0661 0.0662 v 0.0661 0.0661 z m 6.21771,0 h -0.0661 v -0.0661 -0.0661 h 0.0661 0.0661 v 0.0661 0.0661 z m 23.15104,0 h -0.0661 v -0.0661 -0.0661 h 0.0661 0.0661 v 0.0661 0.0661 z m 2.51354,0 h -0.0661 v -0.0661 -0.0661 h 0.0661 0.0661 v 0.0661 0.0661 z m 9.12813,0 h -0.0661 v -0.0661 -0.0661 h 0.0661 0.0661 v 0.0661 0.0661 z m -52.25521,-2.77812 h -0.0662 v -0.0662 -0.0661 h 0.0662 0.0661 v 0.0661 0.0662 z m 23.28333,0 h -0.0661 v -0.0662 -0.0661 h 0.0661 0.0661 v 0.0661 0.0662 z m 14.02292,0 h -0.0661 v -0.0662 -0.0661 h 0.0661 0.0661 v 0.0661 0.0662 z m 9.12812,0 h -0.0661 v -0.0662 -0.0661 h 0.0661 0.0662 v 0.0661 0.0662 z m 13.09687,-0.16766 -1.32291,0.0308 -0.30181,-0.16995 -0.3018,-0.16995 0.0617,-0.0617 0.0617,-0.0617 0.0271,-1.23408 0.0271,-1.23408 -1.44062,-0.0203 -1.44062,-0.0203 v -1.52135 -1.52136 h 2.97656 2.97656 v 2.97657 2.97656 z m 1.19063,-0.0969 h 0.0662 v -0.0661 -0.0662 h -0.0662 -0.0661 v 0.0662 0.0661 z m -5.68854,-2.91041 h 0.0661 v -0.0661 -0.0662 h -0.0661 -0.0661 v 0.0662 0.0661 z m 0,-2.77813 h 0.0661 v -0.0662 -0.0661 h -0.0661 -0.0661 v 0.0661 0.0662 z m 5.68854,0 h 0.0662 v -0.0662 -0.0661 h -0.0662 -0.0661 v 0.0661 0.0662 z m -49.47708,5.55625 h -0.0661 v -0.0661 -0.0661 h 0.0661 0.0662 v 0.0661 0.0661 z m 3.30729,0 h -0.0661 v -0.0661 -0.0661 h 0.0661 0.0661 v 0.0661 0.0661 z m 5.42396,0 h -0.0661 v -0.0661 -0.0661 h 0.0661 0.0661 v 0.0661 0.0661 z m -8.73125,-2.51354 h -0.0661 v -0.0662 -0.0661 h 0.0661 0.0662 v 0.0661 0.0662 z m 38.1,0 h -0.0661 v -0.0662 -0.0661 h 0.0661 0.0661 v 0.0661 0.0662 z m 8.33437,0 h -0.0661 v -0.0662 -0.0661 h 0.0661 0.0662 v 0.0661 0.0662 z m -58.07604,-0.39688 h -0.0662 v -0.0661 -0.0662 h 0.0662 0.0661 v 0.0662 0.0661 z m 3.3073,0 h -0.0662 v -0.0661 -0.0662 h 0.0662 0.0661 v 0.0662 0.0661 z m 20.37291,0 h -0.0661 v -0.0661 -0.0662 h 0.0661 0.0661 v 0.0662 0.0661 z m 14.02292,0 h -0.0661 v -0.0661 -0.0662 h 0.0661 0.0661 v 0.0662 0.0661 z m 3.30729,0 h -0.0661 v -0.0661 -0.0662 h 0.0661 0.0661 v 0.0662 0.0661 z m 2.51354,0 h -0.0661 v -0.0661 -0.0662 h 0.0661 0.0661 v 0.0662 0.0661 z m -25.86141,-2.57968 h -2.75447 l 0.0396,-0.0661 0.0396,-0.0662 -0.17045,-0.15741 -0.17046,-0.15741 -0.0472,0.0473 -0.0472,0.0473 0.0662,-5.77685 0.0661,-5.77684 1.34207,-0.0375 1.34206,-0.0376 0.21978,0.21977 0.21977,0.21978 -0.0253,1.25267 -0.0253,1.25268 1.43999,0.0203 1.43999,0.0203 0.0661,1.38906 0.0662,1.38907 1.29507,0.0661 1.29508,0.0661 0.12751,0.19844 0.1275,0.19843 -0.0335,1.32292 -0.0335,1.32292 -1.34206,0.0375 -1.34207,0.0375 -0.21236,-0.21236 -0.21236,-0.21236 v -1.17337 -1.17337 l -0.10583,-0.0654 -0.10584,-0.0654 -1.22766,-0.027 -1.22767,-0.027 v 1.35916 1.35917 l 1.23428,-0.0199 1.23428,-0.0199 0.19844,0.12922 0.19844,0.12923 0.0661,1.3158 0.0661,1.31581 -0.0661,-0.04 -0.0661,-0.04 -0.15741,0.17045 -0.15742,0.17046 0.0472,0.0472 0.0472,0.0472 z m 5.75308,-3.10886 h 0.0661 v -0.0661 -0.0662 h -0.0661 -0.0661 v 0.0662 0.0661 z m -2.92603,-2.77812 h 0.0661 l 0.0818,-0.1323 0.0818,-0.13229 h -0.0661 -0.0661 l -0.0818,0.13229 -0.0818,0.1323 z m 0.0156,-2.91042 h 0.0661 v -0.0662 -0.0661 h -0.0661 -0.0662 v 0.0661 0.0662 z m -5.68854,-2.91042 h 0.0662 v -0.0661 -0.0661 h -0.0662 -0.0661 v 0.0661 0.0661 z m 17.12074,11.74495 -0.0551,-0.029 -2.77812,-0.0702 -2.77813,-0.0702 -0.0357,-2.79915 -0.0357,-2.79915 0.21511,-0.2151 0.2151,-0.21511 1.27577,0.0377 1.27578,0.0377 0.0203,1.43999 0.0203,1.43999 1.23646,-0.0199 1.23646,-0.0199 0.19844,0.12922 0.19844,0.12923 0.0662,1.3158 0.0661,1.31581 -0.0661,-0.04 -0.0662,-0.04 -0.15741,0.17045 -0.15742,0.17046 0.0802,0.0802 0.0802,0.0802 z m -5.47908,-0.23557 h 0.0661 v -0.0661 -0.0661 h -0.0661 -0.0661 v 0.0661 0.0661 z m 2.64584,-5.68854 h 0.0661 v -0.0662 -0.0661 h -0.0661 -0.0661 v 0.0661 0.0662 z m -8.33438,3.0427 h -0.0661 v -0.0661 -0.0661 h 0.0661 0.0661 v 0.0661 0.0661 z m 12.87757,-0.13229 -1.40993,0.0661 0.0401,-0.0661 0.0401,-0.0661 -0.17046,-0.15741 -0.17045,-0.15742 -0.0472,0.0478 -0.0472,0.0478 0.0661,-1.41173 0.0662,-1.41173 1.24963,-0.0384 1.24963,-0.0384 0.33787,0.13959 0.33787,0.1396 -0.0661,1.42014 -0.0661,1.42014 z m 1.27764,-0.13229 h 0.0662 v -0.0661 -0.0662 h -0.0662 -0.0661 v 0.0662 0.0661 z m -2.77813,-2.77812 h 0.0661 v -0.0662 -0.0661 h -0.0661 -0.0662 v 0.0661 0.0662 z m -30.39401,2.87816 -10.15338,0.0339 -0.002,-0.0339 -0.002,-0.0339 -0.0314,-10.21807 -0.0314,-10.21807 0.17618,-0.0676 0.17619,-0.0676 9.87798,0.002 9.87798,0.002 0.16619,0.10551 0.1662,0.10552 -0.0339,10.17814 -0.0339,10.17814 z m -0.074,-0.13089 10.01329,0.0309 0.0614,-0.0992 0.0614,-0.0992 -6.50277,0.0333 -6.50278,0.0333 -3.57188,0.0351 -3.57187,0.0351 z m 0.0409,-2.94571 h 7.2099 l -0.0992,-0.033 -0.0992,-0.033 0.0662,-7.15492 0.0661,-7.15493 -0.0551,-0.055 -0.0551,-0.055 h -7.03351 -7.0335 l -0.0551,0.055 -0.0551,0.055 0.0661,7.15493 0.0661,7.15492 -0.0992,0.033 -0.0992,0.033 z m -0.0653,-2.74327 -4.37335,0.0349 -0.0645,-0.16823 -0.0645,-0.16823 0.0349,-4.2984 0.0349,-4.2984 h 4.40751 4.40751 l -0.004,4.43177 -0.005,4.43176 z m -4.16018,-0.101 h 0.0583 v -0.0583 -0.0583 l -0.15273,-0.0944 -0.15273,-0.0944 0.0944,0.15274 0.0944,0.15273 z m 8.45886,0 h 0.0661 v -0.0662 -0.0661 h -0.0661 -0.0662 v 0.0661 0.0662 z m -8.61311,-8.33437 h 0.052 l 0.0788,-0.20531 0.0788,-0.20531 -0.13078,0.0808 -0.13077,0.0808 v 0.12448 0.12449 z m 8.54697,-0.26459 h 0.17639 l -0.0882,-0.0882 -0.0882,-0.0882 -0.0882,0.0882 -0.0882,0.0882 z m -4.16719,-2.8398 -7.14375,4e-5 3.52947,-0.0375 3.52946,-0.0375 3.61429,0.0374 3.61428,0.0374 z m 0,-2.91488 h 10.09505 l -0.0613,-0.0992 -0.0613,-0.0992 h -9.97241 -9.9724 l -0.0613,0.0992 -0.0613,0.0992 z m 37.68048,20.27793 -1.47786,0.0373 -0.0841,-0.13612 -0.0841,-0.13613 0.0249,-1.34126 0.0249,-1.34127 -1.24106,0.0172 -1.24105,0.0172 -0.26459,-0.16466 -0.26458,-0.16466 v -1.25677 -1.25677 l -2.84427,-0.0661 -2.84427,-0.0662 v -1.52135 -1.52135 l 2.77812,-0.0325 2.77813,-0.0325 0.19844,0.1265 0.19843,0.12651 0.0661,1.29508 0.0662,1.29507 1.30145,0.0661 1.30144,0.0661 0.0215,-0.0216 0.0215,-0.0216 -0.0661,-1.33233 -0.0662,-1.33234 0.33787,-0.13966 0.33786,-0.13966 1.24964,0.0384 1.24963,0.0384 v 4.43178 4.43177 z m -1.43256,-0.10346 h 0.0662 v -0.0661 -0.0662 h -0.0662 -0.0661 v 0.0662 0.0661 z m 2.77812,0 h 0.0662 v -0.0661 -0.0662 h -0.0662 -0.0661 v 0.0662 0.0661 z m -5.83645,-5.68854 h 0.0661 l 0.0818,-0.13229 0.0818,-0.13229 h -0.0661 -0.0662 l -0.0818,0.13229 -0.0818,0.13229 z m -5.67292,-0.13229 h 0.0661 v -0.0662 -0.0661 h -0.0661 -0.0661 v 0.0661 0.0662 z m 0,-2.77813 h 0.0661 v -0.0661 -0.0661 h -0.0661 -0.0661 v 0.0661 0.0661 z m 11.50937,0 h 0.0662 v -0.0661 -0.0661 h -0.0662 -0.0661 v 0.0661 0.0661 z m 13.09247,8.73125 h -10.0718 l -0.0882,-0.0882 -0.0882,-0.0882 v -10.07182 -10.0718 l 0.15875,-0.15875 0.15875,-0.15875 h 9.95211 9.95211 l 0.20789,0.20788 0.20788,0.20789 v 9.95211 9.95211 l -0.15875,0.15875 -0.15875,0.15875 z m 0.11143,-0.16318 10.07944,-0.0309 -3.63802,-0.035 -3.63803,-0.035 -6.50277,-0.0333 -6.50278,-0.0333 0.0614,0.0992 0.0614,0.0992 z m 10.11292,-10.07484 0.0344,-9.9073 -0.14934,-0.17994 -0.14934,-0.17994 -9.93875,0.0318 -9.93875,0.0318 9.98802,0.0674 9.98802,0.0674 0.0657,9.98802 0.0657,9.98802 z m -10.13757,7.0984 7.19367,-0.0308 v -7.17912 -7.17913 h -7.2099 -7.20989 l -0.0344,7.07761 -0.0344,7.0776 0.0506,0.13229 0.0506,0.13229 z m -7.06078,-7.0799 -0.0354,7.11067 -0.0319,-7.17682 -0.0319,-7.17682 h 7.14375 7.14374 l -0.0319,7.17682 -0.0319,7.17682 -0.0354,-7.11067 -0.0354,-7.11068 h -7.00915 -7.00916 z m 7.08323,4.36739 -4.39309,0.0349 -0.1379,-0.25766 -0.1379,-0.25766 v -4.01831 -4.0183 l 0.16537,-0.22573 0.16536,-0.22572 4.36563,0.0351 4.36562,0.0351 v 4.43177 4.43177 z m -4.33816,-0.10099 h 0.0662 v -0.0662 -0.0661 h -0.0662 -0.0661 v 0.0661 0.0662 z m 8.56589,-0.0866 0.0992,-0.0613 v -4.21771 -4.21772 l -0.0992,-0.0613 -0.0992,-0.0613 v 4.34036 4.34036 z m -8.66536,-2.19544 0.04,-2.08359 -0.04,-2.0836 -0.04,-2.08359 v 4.16719 4.16718 z m 0.0995,-6.31693 h 0.0662 v -0.0661 -0.0661 h -0.0662 -0.0661 v 0.0661 0.0661 z m -5.82083,-5.68854 h 0.0662 v -0.0662 -0.0661 h -0.0662 -0.0661 v 0.0661 0.0662 z m -25.92916,19.97602 h -0.0661 v -0.0661 -0.0661 h 0.0661 0.0661 v 0.0661 0.0661 z m 2.51354,0 h -0.0661 v -0.0661 -0.0661 h 0.0661 0.0661 v 0.0661 0.0661 z m 8.99583,0 h -0.0662 v -0.0661 -0.0661 h 0.0662 0.0661 v 0.0661 0.0661 z m -11.50937,-2.51354 h -0.0661 v -0.0662 -0.0661 h 0.0661 0.0661 v 0.0661 0.0662 z m 7.07921,-0.0662 h -1.29926 l 0.0396,-0.0661 0.0396,-0.0662 -0.17045,-0.15741 -0.17046,-0.15741 -0.0472,0.0478 -0.0472,0.0478 0.0662,-1.41173 0.0661,-1.41173 h 1.52136 1.52135 l 0.0661,1.40993 0.0661,1.40993 -0.0661,-0.0401 -0.0661,-0.0401 -0.15741,0.17046 -0.15741,0.17045 0.0472,0.0472 0.0472,0.0472 z m -1.39067,-2.97656 h 0.0661 v -0.0662 -0.0661 h -0.0661 -0.0662 v 0.0661 0.0662 z m 2.77813,0 h 0.0661 v -0.0662 -0.0661 h -0.0661 -0.0661 v 0.0661 0.0662 z m 11.37708,3.04271 h -0.0661 v -0.0662 -0.0661 h 0.0661 0.0661 v 0.0661 0.0662 z m -19.84375,-3.30729 h -0.0661 v -0.0661 -0.0661 h 0.0661 0.0661 v 0.0661 0.0661 z m 19.84375,0 h -0.0661 v -0.0661 -0.0661 h 0.0661 0.0661 v 0.0661 0.0661 z m -15.56484,-2.64584 -4.32004,0.0661 0.0397,-0.0661 0.0397,-0.0661 -0.17045,-0.15741 -0.17046,-0.15741 -0.10145,0.0913 -0.10145,0.0913 0.0788,-0.13891 0.0788,-0.13891 0.027,-1.22985 0.027,-1.22985 -1.44063,-0.0203 -1.44062,-0.0203 v -2.97656 -2.97657 l 1.38906,-0.0661 1.38906,-0.0662 0.0661,-1.38906 0.0661,-1.38906 h 1.52136 1.52135 v 1.52135 1.52136 l -1.32147,0.0383 -1.32148,0.0382 -0.0927,0.0941 -0.0927,0.094 -0.0263,1.22932 -0.0263,1.22933 h 2.80914 2.80914 l 0.0204,-1.42776 0.0204,-1.42777 1.43486,-0.0203 1.43486,-0.0203 0.0203,-1.43486 0.0203,-1.43487 h 1.45521 1.45521 l 0.0204,1.42597 0.0204,1.42597 h 4.25867 4.25866 l 0.0204,-1.42597 0.0204,-1.42597 h 1.52136 1.52135 v 2.97656 2.97657 l -1.43255,0.0204 -1.43255,0.0204 0.0154,2.67926 0.0154,2.67927 0.0816,0.13201 0.0816,0.13201 -0.14143,-0.0874 -0.14143,-0.0874 -0.0552,0.16619 -0.0552,0.16619 -1.3347,0.0661 -1.33471,0.0661 0.0477,-0.0472 0.0477,-0.0472 -0.15741,-0.17045 -0.15741,-0.17046 -0.11966,0.0727 -0.11966,0.0727 0.0816,-0.13201 0.0816,-0.13201 0.0154,-2.67218 0.0154,-2.67219 h -2.80118 -2.80118 l -0.0204,1.42777 -0.0204,1.42776 -1.36872,0.0199 -1.36872,0.0199 -0.0203,1.4353 -0.0203,1.4353 z m 4.18776,-0.13229 h 0.0661 v -0.0661 -0.0661 h -0.0661 -0.0661 v 0.0661 0.0661 z m -11.50938,-2.91036 h 0.0662 v -0.0661 -0.0661 h -0.0662 -0.0661 v 0.0661 0.0661 z m 14.2875,0 h 0.0661 v -0.0661 -0.0661 h -0.0661 -0.0661 v 0.0661 0.0661 z m 11.64167,-2.91042 h 0.0661 v -0.0662 -0.0661 h -0.0661 -0.0661 v 0.0661 0.0662 z m -25.92917,-2.77812 h 0.0662 v -0.0662 -0.0661 h -0.0662 -0.0661 v 0.0661 0.0662 z m 2.91823,0 h 0.0583 v -0.0583 -0.0583 l -0.15274,-0.0944 -0.15273,-0.0944 0.0944,0.15273 0.0944,0.15273 z m 5.81302,0 h 0.0661 v -0.0662 -0.0661 h -0.0661 -0.0662 v 0.0661 0.0662 z m -3.04271,-0.13229 h 0.0661 v -0.0661 -0.0661 h -0.0661 -0.0662 v 0.0661 0.0661 z m -2.77812,-2.77813 h 0.0661 v -0.0661 -0.0661 h -0.0661 -0.0662 v 0.0661 0.0661 z m 2.77812,0 h 0.0661 v -0.0661 -0.0661 h -0.0661 -0.0662 v 0.0661 0.0661 z m 5.95313,0 h 0.0661 v -0.0661 -0.0661 h -0.0661 -0.0661 v 0.0661 0.0661 z m 2.64583,0 h 0.0661 v -0.0661 -0.0661 h -0.0661 -0.0661 v 0.0661 0.0661 z m 8.86354,0 h 0.0662 v -0.0661 -0.0661 h -0.0662 -0.0661 v 0.0661 0.0661 z m 2.77813,0 h 0.0661 v -0.0661 -0.0661 h -0.0661 -0.0661 v 0.0661 0.0661 z m -23.28334,8.86354 h -0.0662 v -0.0661 -0.0661 h 0.0662 0.0661 v 0.0661 0.0661 z m 9.12813,0 h -0.0662 v -0.0661 -0.0661 h 0.0662 0.0661 v 0.0661 0.0661 z m 2.77812,-2.91041 h -0.0662 v -0.0662 -0.0661 h 0.0662 0.0661 v 0.0661 0.0662 z m 5.42396,0 h -0.0661 v -0.0662 -0.0661 h 0.0661 0.0661 v 0.0661 0.0662 z m 3.30729,0 h -0.0661 v -0.0662 -0.0661 h 0.0661 0.0661 v 0.0661 0.0662 z m -20.24062,-0.39688 h -0.0661 v -0.0661 -0.0661 h 0.0661 0.0661 v 0.0661 0.0661 z m 5.42396,0 h -0.0661 v -0.0661 -0.0661 h 0.0661 0.0662 v 0.0661 0.0661 z m 2.91041,-2.91042 h -0.0661 v -0.0662 -0.0661 h 0.0661 0.0661 v 0.0661 0.0662 z m 3.175,0 h -0.0662 v -0.0662 -0.0661 h 0.0662 0.0661 v 0.0661 0.0662 z m 8.33438,0 h -0.0661 v -0.0662 -0.0661 h 0.0661 0.0661 v 0.0661 0.0662 z"
       id="path1" /></g></svg>
